<?xml version="1.0" encoding="UTF-8" standalone="no"?>
<!DOCTYPE svg PUBLIC "-//W3C//DTD SVG 1.1//EN" "http://www.w3.org/Graphics/SVG/1.1/DTD/svg11.dtd">
<svg version="1.1" xmlns="http://www.w3.org/2000/svg" xmlns:xlink="http://www.w3.org/1999/xlink" preserveAspectRatio="xMidYMid meet" viewBox="0 0 30 18" width="30" height="18"><defs><path d="M20.65 1.06C23.88 1.06 26.5 3.25 26.5 5.94C26.5 13.41 14.81 17.12 14.81 17.33C14.81 17.33 14.81 17.33 14.81 17.33C14.81 17.12 3.11 13.41 3.11 5.94C3.11 3.25 5.73 1.06 8.96 1.06C12.19 1.06 14.81 2.98 14.81 5.67C14.81 2.98 17.43 1.06 20.65 1.06Z" id="aqsGOPU8f"></path><linearGradient id="gradientbfZAx4f3H" gradientUnits="userSpaceOnUse" x1="14.81" y1="1.06" x2="14.81" y2="17.33"><stop style="stop-color: #00c3ff;stop-opacity: 1" offset="0%"></stop><stop style="stop-color: #010000;stop-opacity: 1" offset="100%"></stop></linearGradient><linearGradient id="gradienta4VHkKw2uC" gradientUnits="userSpaceOnUse" x1="14.81" y1="1.06" x2="14.81" y2="17.33"><stop style="stop-color: #00deff;stop-opacity: 1" offset="0%"></stop><stop style="stop-color: #fff900;stop-opacity: 1" offset="100%"></stop></linearGradient></defs><g><g><g><g><filter id="shadow8082735" x="-4.89" y="-6.94" width="40.39" height="33.27" filterUnits="userSpaceOnUse" primitiveUnits="userSpaceOnUse"><feFlood></feFlood><feComposite in2="SourceAlpha" operator="in"></feComposite><feGaussianBlur stdDeviation="1"></feGaussianBlur><feOffset dx="1" dy="1" result="afterOffset"></feOffset><feFlood flood-color="#000000" flood-opacity="0.5"></feFlood><feComposite in2="afterOffset" operator="in"></feComposite><feMorphology operator="dilate" radius="0"></feMorphology><feComposite in2="SourceAlpha" operator="out"></feComposite></filter><path d="M20.65 1.06C23.88 1.06 26.5 3.25 26.5 5.94C26.5 13.41 14.81 17.12 14.81 17.33C14.81 17.33 14.81 17.33 14.81 17.33C14.81 17.12 3.11 13.41 3.11 5.94C3.11 3.25 5.73 1.06 8.96 1.06C12.19 1.06 14.81 2.98 14.81 5.67C14.81 2.98 17.43 1.06 20.65 1.06Z" id="c96LDbYUt" fill="white" fill-opacity="1" filter="url(#shadow8082735)"></path></g><use xlink:href="#aqsGOPU8f" opacity="1" fill="url(#gradientbfZAx4f3H)"></use><use xlink:href="#aqsGOPU8f" opacity="1" fill="url(#gradienta4VHkKw2uC)"></use><g><use xlink:href="#aqsGOPU8f" opacity="1" fill-opacity="0" stroke="#444444" stroke-width="0.5" stroke-opacity="1"></use></g></g></g></g></svg>